# xmcd CD database file
#
# Track frame offsets:
#	150
#	40222
#	111392
#	140675
#	196827
#
# Disc length: 2817 seconds
#
# Revision: 0
# Processed by: cddbd v1.5.1PL0 Copyright (c) Steve Scherf et al.
# Submitted via: CDex 1.51
#
DISCID=450aff05
DTITLE=Miles Davis - November 5, 1969
DYEAR=1969
DGENRE=Jazz
TTITLE0=Directions
TTITLE1=Bitches Brew
TTITLE2=This
TTITLE3=It's About That Time
TTITLE4=No Blues
EXTD=YEAR: 1969
EXTT0=
EXTT1=
EXTT2=
EXTT3=
EXTT4=
PLAYORDER=
